<?xml version="1.0" standalone="no"?>
<!DOCTYPE svg PUBLIC "-//W3C//DTD SVG 20010904//EN"
 "http://www.w3.org/TR/2001/REC-SVG-20010904/DTD/svg10.dtd">
<svg version="1.0" xmlns="http://www.w3.org/2000/svg"
 width="1415.000000pt" height="1415.000000pt" viewBox="0 0 1415.000000 1415.000000"
 preserveAspectRatio="xMidYMid meet">
<metadata>
Created by potrace 1.14, written by Peter Selinger 2001-2017
</metadata>
<g transform="translate(0.000000,1415.000000) scale(0.100000,-0.100000)"
fill="#000000" stroke="none">
<path d="M7020 13804 c-159 -212 -518 -491 -890 -692 -306 -166 -700 -324
-968 -387 -9 -3 -35 -9 -57 -14 -108 -26 -306 -60 -400 -69 -150 -13 -495 -7
-695 13 -82 8 -145 15 -175 19 -16 3 -68 10 -115 16 -137 19 -342 57 -515 95
-38 9 -81 18 -95 21 -14 3 -50 12 -80 20 -30 8 -65 17 -77 19 -77 17 -408 122
-633 201 -201 71 -371 45 -488 -75 -87 -87 -118 -213 -94 -373 6 -40 14 -98
17 -128 4 -30 8 -66 10 -80 2 -14 6 -50 10 -80 3 -30 8 -71 10 -90 12 -93 23
-178 30 -245 3 -25 7 -65 10 -90 3 -25 7 -64 10 -87 2 -24 7 -65 10 -93 3 -27
7 -68 10 -90 2 -22 7 -71 10 -110 4 -38 8 -81 10 -95 2 -14 7 -59 10 -100 7
-92 13 -159 20 -225 3 -27 7 -77 10 -110 2 -33 6 -100 10 -150 3 -49 8 -115
10 -145 27 -403 23 -921 -10 -1090 -3 -14 -8 -44 -11 -66 -2 -23 -6 -50 -8
-60 -61 -307 -135 -646 -196 -899 -10 -44 -21 -91 -24 -105 -3 -14 -17 -79
-31 -145 -15 -66 -28 -127 -30 -135 -2 -8 -6 -26 -9 -40 -3 -14 -8 -36 -10
-50 -3 -14 -7 -34 -10 -45 -11 -50 -93 -478 -102 -535 -3 -19 -7 -42 -9 -50
-2 -8 -7 -35 -10 -60 -3 -25 -13 -88 -21 -140 -8 -52 -17 -117 -20 -145 -2
-27 -6 -61 -9 -75 -9 -57 -20 -160 -30 -280 -4 -36 -8 -81 -10 -100 -26 -205
-26 -985 -1 -1130 3 -14 7 -52 10 -85 7 -69 14 -129 21 -165 2 -14 7 -43 10
-66 5 -35 47 -249 60 -309 7 -30 14 -62 20 -86 14 -65 101 -335 141 -436 57
-145 166 -371 231 -478 27 -44 55 -91 63 -104 8 -14 19 -30 23 -35 4 -6 40
-57 80 -113 194 -274 484 -562 777 -770 89 -63 269 -183 275 -183 2 0 36 -19
77 -43 272 -161 660 -331 1043 -458 124 -41 489 -151 545 -164 8 -2 80 -22
160 -45 80 -22 154 -43 165 -45 66 -15 267 -86 397 -141 106 -45 425 -210 547
-284 357 -215 736 -499 976 -732 l59 -58 56 53 c85 83 216 196 331 286 57 45
119 94 138 109 19 15 46 35 60 44 14 10 40 28 58 40 47 34 219 149 298 200
176 112 491 279 645 342 36 15 74 31 85 35 63 26 88 36 165 61 73 25 380 112
545 155 155 40 577 173 642 201 17 8 36 14 42 14 6 0 19 4 29 9 9 5 44 20 77
32 485 182 958 452 1310 748 107 90 309 290 385 381 30 36 57 67 60 70 20 20
110 145 177 245 272 409 448 870 542 1426 19 110 23 142 36 259 3 30 8 69 10
86 27 196 26 924 0 1149 -4 33 -12 118 -21 210 -3 33 -7 71 -10 85 -2 14 -6
50 -9 80 -3 30 -10 78 -15 105 -5 28 -12 73 -15 100 -3 28 -12 88 -20 135 -8
47 -17 105 -20 130 -4 24 -8 47 -10 50 -2 3 -6 26 -10 50 -11 76 -16 104 -25
140 -5 19 -11 53 -15 75 -3 22 -7 47 -10 55 -2 8 -6 26 -9 40 -4 24 -23 112
-32 155 -2 11 -6 31 -9 44 -2 14 -16 77 -30 141 -14 64 -27 126 -30 139 -2 12
-6 30 -9 39 -3 9 -7 28 -10 42 -2 14 -9 43 -14 65 -6 22 -13 51 -16 65 -2 14
-38 176 -79 360 -41 184 -79 355 -83 380 -4 25 -8 47 -9 50 -2 11 -17 96 -20
120 -2 14 -6 43 -10 65 -12 85 -15 113 -22 220 -12 186 -5 701 12 895 2 25 6
92 10 150 3 58 8 121 10 140 1 19 6 76 10 125 3 50 8 106 10 125 2 19 6 69 10
110 3 41 8 86 10 100 2 14 7 63 10 110 4 47 9 93 10 102 2 10 7 50 10 90 3 39
8 74 10 77 2 3 6 40 9 82 4 42 8 85 10 95 2 11 7 51 11 89 4 39 8 77 10 85 1
8 6 42 10 75 4 32 8 66 10 75 1 8 8 58 15 110 7 52 14 104 16 115 3 11 7 54
10 95 14 174 -64 315 -211 385 -124 58 -218 56 -405 -9 -505 -178 -993 -300
-1395 -350 -180 -22 -302 -35 -415 -43 -120 -9 -477 -9 -550 -1 -173 20 -367
58 -515 99 -93 27 -317 100 -330 108 -5 4 -28 13 -50 20 -143 49 -466 204
-655 316 -313 186 -612 422 -747 590 -17 22 -40 51 -50 64 l-19 23 -44 -58z"/>
<path d="M7910 1092 c-113 -15 -250 -113 -298 -213 -90 -187 -33 -416 133
-526 188 -125 454 -71 575 117 106 166 85 366 -54 506 -96 95 -217 135 -356
116z m207 -94 c211 -99 255 -390 84 -555 -157 -151 -419 -105 -515 91 -65 133
-43 295 54 393 38 38 111 83 148 89 15 3 29 8 32 11 12 13 152 -8 197 -29z"/>
<path d="M7819 898 c-1 -29 -1 -420 0 -430 1 -5 16 -8 34 -8 l34 0 -1 100 c-1
82 2 100 14 101 8 0 26 2 39 3 18 2 30 -8 56 -48 17 -28 45 -71 61 -96 15 -25
27 -48 26 -52 -1 -5 19 -8 44 -8 l46 0 -23 38 c-13 20 -40 64 -61 96 -36 56
-47 83 -30 72 4 -2 21 2 39 9 45 19 67 66 59 128 -11 94 -55 117 -221 117
-112 0 -115 -1 -116 -22z m252 -54 c21 -19 25 -64 9 -94 -11 -20 -46 -29 -120
-31 -79 -2 -75 -6 -73 68 0 38 2 71 2 76 1 4 38 5 82 2 58 -3 87 -9 100 -21z"/>
</g>
</svg>
